<svg width="24" height="24" viewBox="0 0 24 24" fill="none" xmlns="http://www.w3.org/2000/svg">
<g clip-path="url(#clip0_2597_4528)">
<path d="M17 3.33992C18.5083 4.21078 19.7629 5.46045 20.6398 6.96522C21.5167 8.47 21.9854 10.1777 21.9994 11.9193C22.0135 13.6608 21.5725 15.3759 20.72 16.8946C19.8676 18.4134 18.6332 19.6831 17.1392 20.5782C15.6452 21.4734 13.9434 21.9627 12.2021 21.998C10.4608 22.0332 8.74055 21.6131 7.21156 20.7792C5.68256 19.9452 4.39787 18.7264 3.48467 17.2434C2.57146 15.7604 2.06141 14.0646 2.005 12.3239L2 11.9999L2.005 11.6759C2.061 9.94891 2.56355 8.26588 3.46364 6.79092C4.36373 5.31595 5.63065 4.09938 7.14089 3.25981C8.65113 2.42024 10.3531 1.98632 12.081 2.00036C13.8089 2.0144 15.5036 2.47592 17 3.33992ZM15.707 9.29292C15.5348 9.12075 15.3057 9.01732 15.0627 9.00204C14.8197 8.98675 14.5794 9.06067 14.387 9.20992L14.293 9.29292L11 12.5849L9.707 11.2929L9.613 11.2099C9.42059 11.0608 9.18037 10.9869 8.93741 11.0023C8.69444 11.0176 8.46541 11.121 8.29326 11.2932C8.12112 11.4653 8.01768 11.6944 8.00235 11.9373C7.98703 12.1803 8.06086 12.4205 8.21 12.6129L8.293 12.7069L10.293 14.7069L10.387 14.7899C10.5624 14.926 10.778 14.9998 11 14.9998C11.222 14.9998 11.4376 14.926 11.613 14.7899L11.707 14.7069L15.707 10.7069L15.79 10.6129C15.9393 10.4205 16.0132 10.1803 15.9979 9.93724C15.9826 9.69422 15.8792 9.46512 15.707 9.29292Z" fill="#27B43E"/>
</g>
<defs>
<clipPath id="clip0_2597_4528">
<rect width="24" height="24" fill="white"/>
</clipPath>
</defs>
</svg>
