<svg width="122" height="34" viewBox="0 0 122 34" fill="none" xmlns="http://www.w3.org/2000/svg">
<g clip-path="url(#clip0_2618_5890)">
<path d="M33.9957 0H17.2578L13.644 3.61526H3.61526V13.5497L0 17.1636V33.9957H16.7407L20.3546 30.3805H30.3833V20.4489L33.9957 16.835V0ZM28.6392 28.6407H5.35647V5.3579H28.6392V28.6407Z" fill="white"/>
<path d="M16.999 7.66162C15.1518 7.66162 13.3461 8.20941 11.8103 9.23569C10.2745 10.262 9.07751 11.7207 8.37076 13.4273C7.66401 15.1339 7.47924 17.0118 7.83981 18.8234C8.20038 20.635 9.09011 22.2991 10.3964 23.605C11.7028 24.9109 13.3671 25.8002 15.1788 26.1602C16.9906 26.5202 18.8684 26.3348 20.5748 25.6276C22.2812 24.9203 23.7395 23.7229 24.7653 22.1867C25.7911 20.6506 26.3384 18.8448 26.3378 16.9976C26.3376 15.7714 26.0959 14.5572 25.6265 13.4244C25.1571 12.2916 24.4691 11.2624 23.6019 10.3955C22.7347 9.52855 21.7053 8.84092 20.5724 8.37184C19.4394 7.90277 18.2252 7.66143 16.999 7.66162ZM13.9122 11.284L14.8564 12.2282L12.8438 14.2379L14.8564 16.2463L13.9165 17.1876L10.9612 14.2379L13.9122 11.284ZM12.6267 22.2826L11.6882 21.3399L21.3599 11.6683L22.3026 12.6081L12.6267 22.2826ZM20.0829 22.7112L19.143 21.7713L21.1527 19.7601L19.143 17.7603L20.0829 16.8176L23.0339 19.7658L20.0829 22.7112Z" fill="#FFCE00"/>
<path d="M43.3872 5.71327H39.7305V4.35059H48.6079V5.71327H44.9512V15.8734H43.3872V5.71327Z" fill="white"/>
<path d="M50.0586 4.35059H51.6227V15.8777H50.0586V4.35059Z" fill="white"/>
<path d="M53.8945 4.35083H55.3429L59.3424 11.7456L63.2448 4.35083H64.6946V15.8779H63.1662V7.28475L60.1352 12.9469C60.0422 13.1374 59.917 13.3103 59.7652 13.4583C59.653 13.5536 59.5096 13.6044 59.3624 13.6011H58.9168L55.4429 7.28475V15.8808H53.8945V4.35083Z" fill="white"/>
<path d="M67.1411 15.5492C67.0253 15.4298 66.9354 15.2877 66.8771 15.1318C66.8188 14.9759 66.7935 14.8097 66.8026 14.6436V4.35059H74.8887V5.71327H68.3681V9.3071H74.3945V10.6584H68.3681V14.515H74.8887V15.8806H68.0553C67.8885 15.8894 67.7216 15.8646 67.5646 15.8076C67.4075 15.7507 67.2635 15.6628 67.1411 15.5492Z" fill="white"/>
<path d="M77.9366 15.484C77.3435 15.133 76.8655 14.6168 76.561 13.9985C76.2251 13.3036 76.0587 12.539 76.0754 11.7673V8.46774C76.0589 7.69516 76.2284 6.92995 76.5696 6.23659C76.8795 5.61588 77.3628 5.09838 77.9608 4.74678C78.5951 4.38601 79.3153 4.20387 80.0449 4.2197H81.7904C82.4826 4.20713 83.1662 4.37447 83.7744 4.70535C84.3409 5.01983 84.8043 5.49163 85.1085 6.06375C85.4302 6.68398 85.5913 7.37496 85.577 8.0735H84.0458C84.0458 7.3374 83.8401 6.74462 83.4287 6.29515C83.2207 6.07083 82.9665 5.89427 82.6837 5.77764C82.4008 5.661 82.096 5.60706 81.7904 5.61952H80.0449C79.714 5.60968 79.3853 5.67575 79.084 5.81268C78.7827 5.9496 78.5167 6.15374 78.3065 6.40942C77.8628 6.93698 77.6404 7.63451 77.6395 8.50202V11.7288C77.6395 12.5963 77.8537 13.2933 78.2822 13.8199C78.4832 14.0753 78.7413 14.2799 79.0358 14.4173C79.3303 14.5548 79.6529 14.6212 79.9777 14.6112H81.7575C82.0777 14.6223 82.3962 14.56 82.6886 14.4291C82.981 14.2981 83.2395 14.1019 83.4444 13.8556C83.8672 13.3557 84.0786 12.6996 84.0786 11.8873H85.6099C85.6254 12.6365 85.4613 13.3785 85.1314 14.0513C84.8327 14.6557 84.3634 15.1592 83.7815 15.4997C83.1648 15.8496 82.465 16.0263 81.7561 16.0111H79.9777C79.262 16.0248 78.5562 15.8425 77.9366 15.484Z" fill="white"/>
<path d="M87.0938 4.35059H88.6578V9.38995H94.6857V4.35059H96.2655V15.8777H94.6857V10.7726H88.6578V15.8777H87.0938V4.35059Z" fill="white"/>
<path d="M104.978 12.8554H100.169L99.0506 15.885H97.418L101.882 4.35791H102.596C103.072 4.35791 103.405 4.61597 103.596 5.1321L107.728 15.885H106.114L104.978 12.8554ZM100.63 11.5384H104.517L102.59 6.32766H102.574L100.63 11.5384Z" fill="white"/>
<path d="M109.043 4.35059H110.614V15.8777H109.043V4.35059Z" fill="white"/>
<path d="M112.879 4.35059H114.329L120.422 13.3595V4.35059H121.953V15.8777H120.525L114.413 6.90312V15.8777H112.879V4.35059Z" fill="white"/>
<path d="M100.009 22.8853H99.2334C99.1036 22.8798 98.9743 22.9024 98.8542 22.9518C98.7341 23.0011 98.6261 23.0759 98.5377 23.171C98.3546 23.3827 98.2604 23.6571 98.2749 23.9366V25.0708C98.2605 25.3498 98.3524 25.6239 98.532 25.8378C98.6198 25.933 98.7272 26.0078 98.8469 26.0571C98.9665 26.1065 99.0955 26.1291 99.2248 26.1235H99.9876C100.12 26.1295 100.252 26.1071 100.376 26.0578C100.499 26.0086 100.61 25.9336 100.702 25.8378C100.887 25.6265 100.983 25.3514 100.969 25.0708V23.9366C100.983 23.6571 100.889 23.3827 100.706 23.171C100.617 23.0759 100.509 23.0012 100.389 22.9519C100.268 22.9026 100.139 22.8799 100.009 22.8853Z" fill="#FFCE00"/>
<path d="M72.1528 22.8686H71.3958C71.2679 22.8628 71.1404 22.8854 71.0223 22.9348C70.9043 22.9842 70.7986 23.0591 70.713 23.1542C70.533 23.3697 70.4406 23.6451 70.4545 23.9256V24.0684H73.0384V23.8827C73.0519 23.6145 72.9642 23.351 72.7928 23.1442C72.7133 23.0537 72.6146 22.9819 72.5039 22.9342C72.3932 22.8865 72.2733 22.8641 72.1528 22.8686Z" fill="#FFCE00"/>
<path d="M83.482 22.8856H82.7036C82.5736 22.88 82.444 22.9027 82.3237 22.952C82.2034 23.0013 82.0952 23.0761 82.0065 23.1713C81.8233 23.383 81.7292 23.6573 81.7437 23.9369V25.071C81.7291 25.3503 81.8215 25.6246 82.0022 25.8381C82.0897 25.9332 82.1969 26.008 82.3163 26.0574C82.4357 26.1067 82.5645 26.1294 82.6936 26.1238H83.4592C83.5917 26.1298 83.724 26.1074 83.8471 26.0581C83.9703 26.0088 84.0815 25.9338 84.1734 25.8381C84.3591 25.6271 84.455 25.3518 84.4405 25.071V23.9369C84.455 23.6573 84.3608 23.383 84.1777 23.1713C84.0892 23.0763 83.9812 23.0016 83.8611 22.9523C83.741 22.903 83.6117 22.8802 83.482 22.8856Z" fill="#FFCE00"/>
<path d="M105.298 22.8856H104.679C104.545 22.8818 104.412 22.9085 104.29 22.9637C104.167 23.0189 104.059 23.1011 103.973 23.2041C103.783 23.443 103.686 23.7431 103.701 24.0483V25.0725C103.687 25.3491 103.778 25.6206 103.955 25.8338C104.034 25.9263 104.132 26 104.243 26.0495C104.354 26.0989 104.475 26.1228 104.596 26.1195H105.168C105.312 26.1184 105.454 26.086 105.585 26.0246C105.716 25.9632 105.832 25.8742 105.925 25.7638C106.139 25.5324 106.266 25.2342 106.285 24.9196V23.8769C106.255 23.6049 106.137 23.3502 105.948 23.1527C105.863 23.0663 105.762 22.9981 105.65 22.9522C105.538 22.9063 105.418 22.8836 105.298 22.8856Z" fill="#FFCE00"/>
<path d="M39.7305 17.9219V29.7775H121.953V17.9219H39.7305ZM47.5495 25.6909C47.5517 25.8601 47.5116 26.0271 47.4327 26.1768C47.3539 26.3265 47.2389 26.4541 47.0981 26.5479C46.7461 26.7815 46.3288 26.8966 45.9068 26.8765H45.0955C44.6577 26.8978 44.2283 26.7506 43.8957 26.4651C43.7457 26.3283 43.6276 26.1604 43.5493 25.9731C43.4711 25.7858 43.4348 25.5837 43.4429 25.3809H44.2785C44.2745 25.4837 44.2922 25.5861 44.3303 25.6816C44.3685 25.777 44.4262 25.8634 44.4999 25.9352C44.6612 26.0812 44.8739 26.1572 45.0912 26.1466H45.9025C46.0989 26.1559 46.2939 26.1099 46.4653 26.0137C46.5294 25.9789 46.583 25.9276 46.6204 25.865C46.6578 25.8024 46.6778 25.731 46.6782 25.658V25.3966C46.678 25.3482 46.6678 25.3003 46.6481 25.256C46.6285 25.2118 46.5998 25.1721 46.5639 25.1395C46.4745 25.0592 46.364 25.0061 46.2454 24.9867L44.6427 24.711C44.3402 24.667 44.0577 24.5337 43.8314 24.3282C43.7358 24.2429 43.6593 24.1383 43.6069 24.0214C43.5545 23.9045 43.5273 23.7779 43.5271 23.6497V23.3455C43.5224 23.1756 43.559 23.007 43.6336 22.8543C43.7082 22.7016 43.8187 22.5692 43.9556 22.4684C44.2957 22.2321 44.7048 22.1155 45.1184 22.1371H45.894C46.2991 22.1173 46.6965 22.2526 47.0053 22.5156C47.1439 22.6416 47.2533 22.7964 47.3258 22.9691C47.3984 23.1418 47.4323 23.3283 47.4252 23.5155H46.5853C46.5864 23.4268 46.5694 23.3389 46.5352 23.2571C46.5011 23.1753 46.4506 23.1014 46.3868 23.0398C46.3205 22.9789 46.2429 22.9316 46.1583 22.9007C46.0737 22.8698 45.9839 22.8559 45.894 22.8598H45.1355C44.9452 22.8512 44.7567 22.901 44.5956 23.0027C44.5337 23.042 44.483 23.0965 44.4482 23.161C44.4135 23.2256 44.3958 23.2979 44.397 23.3712V23.6026C44.3977 23.6526 44.4095 23.7018 44.4318 23.7465C44.4541 23.7913 44.4861 23.8305 44.5256 23.8611C44.6222 23.9397 44.7364 23.9936 44.8584 24.0182L46.4725 24.3039C46.7635 24.3457 47.0353 24.4742 47.2524 24.6725C47.3462 24.7559 47.4214 24.8582 47.4731 24.9726C47.5248 25.087 47.5518 25.2111 47.5523 25.3367L47.5495 25.6909ZM52.706 26.8079H51.8946V26.1394C51.7488 26.3527 51.56 26.5332 51.3404 26.6693C51.1466 26.7995 50.9197 26.8718 50.6862 26.8779H50.0949C49.8921 26.8857 49.6901 26.8492 49.5029 26.771C49.3157 26.6928 49.1477 26.5748 49.0107 26.4251C48.7269 26.0955 48.5802 25.6697 48.6008 25.2352V22.2028H49.4578V25.2581C49.4477 25.4833 49.5164 25.7051 49.6521 25.8852C49.7119 25.962 49.789 26.0238 49.8771 26.0655C49.9651 26.1071 50.0618 26.1276 50.1592 26.1251H50.7134C50.8474 26.1233 50.9797 26.0945 51.1024 26.0405C51.2251 25.9866 51.3357 25.9085 51.4276 25.8109C51.6476 25.5962 51.797 25.3197 51.8561 25.0181V22.2028H52.7131L52.706 26.8079ZM60.605 26.8079H59.7479V23.6526C59.759 23.4528 59.7005 23.2555 59.5823 23.0941C59.532 23.0284 59.4671 22.9753 59.3927 22.9391C59.3183 22.9029 59.2365 22.8845 59.1537 22.8855H58.6738C58.5644 22.8833 58.4558 22.904 58.3549 22.9463C58.2541 22.9886 58.1632 23.0516 58.0882 23.1312C57.9204 23.317 57.8155 23.5509 57.7882 23.7997V26.8079H56.9212V23.6897C56.9331 23.4815 56.8797 23.2747 56.7683 23.0984C56.7234 23.0313 56.6623 22.9766 56.5906 22.9394C56.519 22.9022 56.4391 22.8837 56.3584 22.8855H55.8884C55.7708 22.8869 55.655 22.9145 55.5495 22.9664C55.444 23.0183 55.3514 23.0932 55.2785 23.1855C55.0961 23.4116 54.9839 23.6862 54.9557 23.9754V26.8079H54.0987V22.2028H54.92V22.8213C55.0314 22.6194 55.1878 22.4459 55.3771 22.3142C55.5401 22.1973 55.735 22.133 55.9356 22.1299H56.4712C56.6983 22.1246 56.9216 22.1889 57.1111 22.3142C57.2999 22.4463 57.4482 22.6283 57.5396 22.8398C57.6586 22.6241 57.8301 22.4418 58.0382 22.3099C58.229 22.1915 58.4492 22.1291 58.6738 22.1299H59.2194C59.408 22.1213 59.5962 22.1535 59.7713 22.2242C59.9463 22.295 60.104 22.4026 60.2336 22.5399C60.4992 22.8511 60.6348 23.2526 60.6121 23.6612L60.605 26.8079ZM68.4483 26.8079H67.5912V23.6526C67.6023 23.4528 67.5438 23.2555 67.4255 23.0941C67.3753 23.0284 67.3104 22.9753 67.236 22.9391C67.1616 22.9029 67.0798 22.8845 66.997 22.8855H66.5171C66.4077 22.8833 66.2991 22.904 66.1982 22.9463C66.0974 22.9886 66.0065 23.0516 65.9314 23.1312C65.7637 23.317 65.6588 23.5509 65.6315 23.7997V26.8079H64.7645V23.6897C64.7764 23.4815 64.723 23.2747 64.6116 23.0984C64.5667 23.0313 64.5056 22.9766 64.4339 22.9394C64.3623 22.9022 64.2824 22.8837 64.2017 22.8855H63.7317C63.6141 22.8869 63.4983 22.9145 63.3928 22.9664C63.2872 23.0183 63.1947 23.0932 63.1218 23.1855C62.9394 23.4116 62.8272 23.6862 62.799 23.9754V26.8079H61.942V22.2028H62.7633V22.8213C62.8747 22.6194 63.0311 22.4459 63.2204 22.3142C63.3834 22.1973 63.5783 22.133 63.7789 22.1299H64.3145C64.5416 22.1246 64.7649 22.1889 64.9544 22.3142C65.1432 22.4463 65.2915 22.6283 65.3829 22.8398C65.5019 22.6241 65.6734 22.4418 65.8815 22.3099C66.0723 22.1915 66.2925 22.1291 66.5171 22.1299H67.0627C67.2513 22.1213 67.4395 22.1535 67.6145 22.2242C67.7896 22.295 67.9473 22.4026 68.0769 22.5399C68.3425 22.8511 68.4781 23.2526 68.4554 23.6612L68.4483 26.8079ZM73.8919 24.7496H70.4523V25.1938C70.4446 25.3194 70.4636 25.4452 70.5082 25.5628C70.5528 25.6804 70.6219 25.7872 70.7109 25.8761C70.7999 25.965 70.9068 26.034 71.0245 26.0784C71.1423 26.1228 71.2681 26.1416 71.3936 26.1337H72.1078C72.3511 26.145 72.5904 26.0684 72.782 25.918C72.8657 25.8487 72.9325 25.7612 72.9774 25.6622C73.0222 25.5632 73.0438 25.4553 73.0406 25.3467H73.8804C73.8875 25.5576 73.8472 25.7675 73.7624 25.9608C73.6776 26.1541 73.5505 26.326 73.3905 26.4637C73.0292 26.7595 72.5716 26.9121 72.105 26.8922H71.4036C70.9238 26.9149 70.4546 26.747 70.0981 26.4251C69.9336 26.2684 69.8044 26.0784 69.7191 25.8678C69.6339 25.6572 69.5946 25.4308 69.6038 25.2038V23.9297C69.5926 23.6905 69.6307 23.4516 69.7158 23.2277C69.8008 23.0039 69.9309 22.7999 70.0981 22.6284C70.2714 22.4631 70.4765 22.3345 70.7008 22.2506C70.9252 22.1666 71.1643 22.129 71.4036 22.1399H72.1607C72.394 22.1258 72.6277 22.1616 72.8462 22.2448C73.0647 22.328 73.263 22.4568 73.4278 22.6226C73.5927 22.7884 73.7203 22.9874 73.8023 23.2064C73.8843 23.4253 73.9187 23.6593 73.9033 23.8926L73.8919 24.7496ZM77.63 22.9512H77.15C76.9837 22.9438 76.8176 22.9706 76.662 23.0301C76.5065 23.0895 76.3648 23.1804 76.2459 23.2969C76.1305 23.4174 76.0408 23.56 75.9821 23.7162C75.9234 23.8723 75.897 24.0387 75.9045 24.2054V26.8079H75.0474V22.2028H75.8688V22.877C76.001 22.6656 76.1875 22.4935 76.4087 22.3785C76.6359 22.2522 76.8915 22.1859 77.1515 22.1856H77.6314L77.63 22.9512ZM85.2976 25.1095C85.3075 25.347 85.2679 25.5839 85.1813 25.8052C85.0947 26.0265 84.9631 26.2274 84.7948 26.3951C84.618 26.561 84.4097 26.6899 84.1823 26.774C83.9549 26.8582 83.7129 26.8959 83.4707 26.885H82.6879C82.4485 26.896 82.2093 26.8583 81.9848 26.7741C81.7604 26.6898 81.5555 26.5609 81.3824 26.3951C81.2156 26.2266 81.0855 26.0254 81.0004 25.8041C80.9154 25.5829 80.8771 25.3463 80.8881 25.1095V23.9111C80.8775 23.6729 80.9163 23.4351 81.0021 23.2126C81.0879 22.9901 81.2188 22.7878 81.3866 22.6184C81.5626 22.4526 81.7701 22.3239 81.9969 22.2399C82.2236 22.156 82.465 22.1186 82.7065 22.1299H83.4807C83.7222 22.1188 83.9634 22.1564 84.1901 22.2403C84.4169 22.3242 84.6244 22.4528 84.8005 22.6184C84.9683 22.7878 85.0993 22.9901 85.1851 23.2126C85.2709 23.4351 85.3097 23.6729 85.299 23.9111L85.2976 25.1095ZM88.96 21.0501H88.5086C88.4048 21.0415 88.3003 21.0547 88.2019 21.0889C88.1035 21.1231 88.0134 21.1775 87.9372 21.2486C87.7999 21.4258 87.7342 21.648 87.753 21.8714V22.2028H88.86V22.9512H87.753V26.8079H86.8959V22.9512H86.1018V22.2028H86.8959V21.8614C86.8959 21.3572 87.0388 20.9729 87.3102 20.7087C87.5816 20.4444 87.9872 20.3116 88.51 20.3116H88.9614L88.96 21.0501ZM96.0562 26.3979C95.8952 26.56 95.7021 26.6868 95.4894 26.7701C95.2767 26.8535 95.0489 26.8917 94.8207 26.8822H94.0722C93.837 26.8927 93.6021 26.856 93.3813 26.7743C93.1605 26.6926 92.9583 26.5676 92.7866 26.4065C92.623 26.2434 92.4952 26.0481 92.4111 25.8329C92.327 25.6178 92.2885 25.3875 92.2981 25.1567V23.9197C92.2869 23.6813 92.324 23.4432 92.4072 23.2195C92.4904 22.9959 92.618 22.7914 92.7823 22.6184C92.9505 22.4536 93.1507 22.3251 93.3707 22.241C93.5906 22.157 93.8255 22.1192 94.0608 22.1299H94.8078C95.254 22.1102 95.6906 22.2638 96.0262 22.5584C96.1796 22.7018 96.3002 22.8766 96.3799 23.0708C96.4595 23.2651 96.4962 23.4742 96.4876 23.684H95.6377C95.6418 23.5783 95.6239 23.4729 95.585 23.3746C95.5462 23.2762 95.4873 23.187 95.412 23.1126C95.3306 23.0384 95.2353 22.981 95.1316 22.9437C95.0279 22.9065 94.9179 22.8901 94.8078 22.8955H94.0693C93.945 22.891 93.8212 22.9143 93.7071 22.9638C93.5929 23.0132 93.4912 23.0875 93.4094 23.1812C93.2332 23.398 93.1432 23.6721 93.1566 23.9511V25.1324C93.1501 25.2637 93.1696 25.395 93.214 25.5188C93.2584 25.6426 93.3267 25.7564 93.4151 25.8537C93.5001 25.9437 93.6033 26.0146 93.7179 26.0616C93.8324 26.1087 93.9556 26.1308 94.0793 26.1266H94.8178C94.9354 26.1306 95.0524 26.1082 95.1602 26.061C95.268 26.0138 95.3638 25.9429 95.4406 25.8537C95.605 25.6493 95.6884 25.3915 95.6748 25.1295H96.5247C96.5352 25.3614 96.4993 25.593 96.4191 25.8108C96.3389 26.0286 96.216 26.2282 96.0576 26.3979H96.0562ZM101.824 25.1124C101.834 25.3498 101.794 25.5867 101.708 25.808C101.621 26.0293 101.49 26.2302 101.321 26.3979C101.144 26.5639 100.936 26.6928 100.709 26.7769C100.481 26.8611 100.239 26.8988 99.9972 26.8879H99.2115C98.9721 26.8988 98.7329 26.861 98.5085 26.7768C98.2841 26.6926 98.0791 26.5637 97.906 26.3979C97.74 26.229 97.6106 26.0276 97.5258 25.8065C97.441 25.5853 97.4027 25.349 97.4132 25.1124V23.9111C97.4025 23.6729 97.4413 23.4351 97.5271 23.2126C97.6129 22.9901 97.7439 22.7878 97.9117 22.6184C98.0874 22.4527 98.2947 22.324 98.5212 22.2401C98.7477 22.1562 98.9888 22.1187 99.2301 22.1299H100.006C100.247 22.1188 100.488 22.1564 100.715 22.2403C100.942 22.3242 101.149 22.4528 101.326 22.6184C101.493 22.788 101.624 22.9903 101.71 23.2128C101.795 23.4352 101.834 23.6729 101.824 23.9111V25.1124ZM107.148 26.8108H106.328V26.1551C106.193 26.3705 106.01 26.5511 105.792 26.6822C105.593 26.809 105.364 26.8782 105.128 26.8822H104.528C104.301 26.8913 104.075 26.8524 103.864 26.768C103.654 26.6835 103.463 26.5555 103.305 26.3922C102.987 26.0419 102.819 25.5798 102.84 25.1067V24.0182C102.833 23.6776 102.909 23.3405 103.061 23.0355C103.2 22.7584 103.417 22.5273 103.684 22.3699C103.967 22.2101 104.287 22.1292 104.612 22.1356H105.239C105.442 22.1379 105.64 22.1868 105.821 22.2785C106.002 22.363 106.16 22.4893 106.282 22.647V20.3616H107.149L107.148 26.8108ZM112.647 24.7524H109.207V25.1967C109.199 25.3222 109.218 25.4481 109.262 25.5658C109.307 25.6836 109.376 25.7905 109.465 25.8795C109.553 25.9684 109.66 26.0374 109.778 26.0817C109.896 26.1261 110.022 26.1447 110.147 26.1366H110.861C111.105 26.1478 111.344 26.0713 111.536 25.9209C111.619 25.8514 111.686 25.7639 111.73 25.6649C111.775 25.5659 111.796 25.458 111.793 25.3495H112.633C112.64 25.5604 112.6 25.7702 112.515 25.9635C112.431 26.1569 112.304 26.3287 112.144 26.4665C111.781 26.764 111.321 26.9166 110.851 26.895H110.15C109.67 26.9174 109.201 26.7496 108.845 26.4279C108.681 26.271 108.552 26.0809 108.467 25.8703C108.382 25.6598 108.343 25.4335 108.352 25.2067V23.9325C108.341 23.6935 108.379 23.4547 108.463 23.2309C108.548 23.0071 108.678 22.803 108.845 22.6313C109.018 22.4661 109.223 22.3376 109.447 22.2537C109.672 22.1697 109.911 22.132 110.15 22.1428H110.907C111.141 22.1289 111.374 22.1649 111.593 22.2482C111.811 22.3315 112.009 22.4602 112.174 22.626C112.339 22.7917 112.467 22.9906 112.549 23.2094C112.631 23.4283 112.666 23.6621 112.651 23.8954L112.647 24.7524ZM118.239 27.6506H113.155V26.8936H118.241L118.239 27.6506Z" fill="#FFCE00"/>
<path d="M110.905 22.8685H110.148C110.02 22.8629 109.893 22.8856 109.775 22.935C109.657 22.9844 109.551 23.0592 109.465 23.1542C109.286 23.3701 109.195 23.6453 109.208 23.9255V24.0684H111.791V23.8827C111.804 23.6147 111.717 23.3514 111.547 23.1442C111.467 23.0536 111.368 22.9819 111.257 22.9343C111.146 22.8866 111.026 22.8641 110.905 22.8685Z" fill="#FFCE00"/>
</g>
<defs>
<clipPath id="clip0_2618_5890">
<rect width="121.955" height="34" fill="white"/>
</clipPath>
</defs>
</svg>
